<svg xmlns="http://www.w3.org/2000/svg" width="296.629" height="32" viewBox="0 0 296.629 32"><g transform="translate(91.11)"><path d="M130.727,3.454h47.245l6.4,6.472V23.157l-3.811,3.811H165.675l-4.962-4.89h-5.969l-5.393-5.321h-2.3l-5.465-5.393h-2.948l-7.91-7.91ZM126.7,1.8h51.991l7.335,7.479v14.6l-4.818,4.818H164.956l-4.962-4.89h-5.969l-5.465-5.321h-2.229l-5.465-5.465h-2.948L126.7,1.8Z" transform="translate(-126.7 -0.506)" fill="#00529b" fill-rule="evenodd"/><path d="M142.9,7.5l2.373,2.445h19.488l2.948,2.948h-16.4c.791.791,1.582,1.582,2.373,2.445h16.4l2.948,2.948H159.008c.791.791,1.582,1.582,2.373,2.445H175.4l2.948,3.02h-8.2l2.373,2.445h12.225l1.8-1.87V12.318L181.588,7.5Z" transform="translate(-131.251 -2.107)" fill="#00529b" fill-rule="evenodd"/><path d="M217.887,3.811V27.038l-3.955,3.811H208.61l-1.51-1.51V1.51L208.61,0h5.321l3.955,3.811Zm-1.51.216L213.644,1.51h-4.458l-.575.575V28.692l.575.575h4.458l2.733-2.517V4.027Z" transform="translate(-149.284)" fill="#00529b" fill-rule="evenodd"/><path d="M215.739,6.045,213.151,3.6H212V29.2h1.151l2.589-2.445Z" transform="translate(-150.661 -1.011)" fill="#00529b" fill-rule="evenodd"/><path d="M275.3,3.454H228.054l-6.4,6.472V23.157l3.811,3.811h14.885l4.962-4.89h5.969l5.393-5.321H258.9l5.465-5.393h2.948l7.982-7.91ZM279.326,1.8H227.335L220,9.279v14.6l4.818,4.818H241.07l4.962-4.89H252l5.465-5.321h2.229l5.465-5.465h2.948L279.326,1.8Z" transform="translate(-152.908 -0.506)" fill="#00529b" fill-rule="evenodd"/><path d="M269.149,7.5l-2.373,2.445H247.289l-2.948,2.948h16.4c-.791.791-1.582,1.582-2.373,2.445h-16.4l-2.948,2.948h14.022c-.791.791-1.582,1.582-2.373,2.445H236.646l-2.948,3.02h8.2L239.522,26.2H227.3l-1.8-1.87V12.318L230.462,7.5Z" transform="translate(-154.453 -2.107)" fill="#00529b" fill-rule="evenodd"/></g><g transform="translate(224.719 1.222)"><path d="M327.6,12.774a12.629,12.629,0,0,1,4.746,1.87,5.108,5.108,0,0,1,1.942,4.1,5.349,5.349,0,0,1-2.157,4.387c-1.726,1.438-4.315,2.085-7.622,2.085H312.5v-.575a5.909,5.909,0,0,0,2.3-.288,3.066,3.066,0,0,0,.863-.791,8.256,8.256,0,0,0,.216-2.445V5.8a8.257,8.257,0,0,0-.216-2.445,1.569,1.569,0,0,0-.863-.791,5.5,5.5,0,0,0-2.229-.288V1.7h11.362a15.633,15.633,0,0,1,5.753.719,6.115,6.115,0,0,1,2.661,2.157,5.464,5.464,0,0,1,1.007,3.092,4.365,4.365,0,0,1-1.222,3.02A10.646,10.646,0,0,1,327.6,12.774Zm-6.328-.431a9.248,9.248,0,0,0,3.667-.575,4.3,4.3,0,0,0,1.8-1.582,4.6,4.6,0,0,0,.647-2.589,4.6,4.6,0,0,0-.647-2.589,4.151,4.151,0,0,0-1.8-1.51,9.659,9.659,0,0,0-3.739-.5v9.348Zm0,1.294v8.413a2.147,2.147,0,0,0,.431,1.438,2.03,2.03,0,0,0,1.438.5,5.047,5.047,0,0,0,2.517-.647,4.333,4.333,0,0,0,1.8-1.8,5.318,5.318,0,0,0,.647-2.589,5.782,5.782,0,0,0-.719-2.948,4.069,4.069,0,0,0-2.085-1.87A11.661,11.661,0,0,0,321.273,13.637Z" transform="translate(-312.5 -1.7)" fill="#00529b"/><path d="M345.172,25.287v-.575h.791a3.1,3.1,0,0,0,1.582-.288,1.83,1.83,0,0,0,.791-.863,10.836,10.836,0,0,0,.144-2.229V5.727a7.094,7.094,0,0,0-.216-2.3,1.672,1.672,0,0,0-.791-.791,3.428,3.428,0,0,0-1.582-.36H345.1V1.7h10.571A16.692,16.692,0,0,1,362.5,2.851a10.13,10.13,0,0,1,4.746,4.243,12.735,12.735,0,0,1,1.654,6.472,13.74,13.74,0,0,1-.791,4.6,9.042,9.042,0,0,1-2.085,3.452,9.98,9.98,0,0,1-2.948,2.229,13.757,13.757,0,0,1-4.1,1.294,18.615,18.615,0,0,1-3.38.216H345.172Zm8.989-22.292V21.475a7.224,7.224,0,0,0,.144,1.8.86.86,0,0,0,.5.5,3.229,3.229,0,0,0,1.366.288,5.191,5.191,0,0,0,4.458-2.013c1.366-1.8,2.085-4.6,2.085-8.342a15.881,15.881,0,0,0-1.438-7.263,5.988,5.988,0,0,0-2.948-2.876A10.062,10.062,0,0,0,354.161,2.994Z" transform="translate(-321.657 -1.7)" fill="#00529b"/><path d="M402.314,1.7,388.435,23.992h4.458a15.632,15.632,0,0,0,4.458-.431,7.746,7.746,0,0,0,3.6-2.3,9.2,9.2,0,0,0,2.085-4.458h.647l-.935,8.557H381.1L394.979,3.066h-3.524a18.059,18.059,0,0,0-2.661.144,6.889,6.889,0,0,0-2.3.863,5.369,5.369,0,0,0-1.8,1.8,8.46,8.46,0,0,0-1.079,2.8h-.647l.647-6.9h18.7Z" transform="translate(-331.77 -1.7)" fill="#00529b"/></g><path d="M26.031,2.647c1.51,0,2.517.216,2.948.647A3.7,3.7,0,0,1,29.7,5.883a39.337,39.337,0,0,1-1.87,13.3c-1.222,3.308-3.308,5.249-6.184,5.825v7.551h.575a6.944,6.944,0,0,1,2.589-5.106,8.815,8.815,0,0,1,5.825-1.8h6.472A7.643,7.643,0,0,1,42.643,27.6a7.257,7.257,0,0,1,2.229,4.962h.575V25.011a5.178,5.178,0,0,1-2.085-.36,1.954,1.954,0,0,1-1.007-1.007,6.678,6.678,0,0,1-.216-2.085V5.739a3.862,3.862,0,0,1,.575-2.517,4.744,4.744,0,0,1,2.733-.647V2H26.031ZM31.209,5.6V3.582h5.9V22.351c0,.863-.072,1.366-.288,1.51a5.046,5.046,0,0,1-2.013.216H26.391a12.423,12.423,0,0,0,2.661-3.883,28.7,28.7,0,0,0,1.582-6.328A62.2,62.2,0,0,0,31.209,5.6ZM19.56,14.512q-2.373-1.726-7.335-1.726H9.133v-9.2h4.315a9.379,9.379,0,0,1,3.308.431A3.908,3.908,0,0,1,18.625,5.6a7.53,7.53,0,0,1,1.151,2.876h.575v-6.4H0v.575a4.761,4.761,0,0,1,2.8.575,3.846,3.846,0,0,1,.647,2.661V21.991A3.319,3.319,0,0,1,2.8,24.436a4.761,4.761,0,0,1-2.8.575v.575H12.656a13.5,13.5,0,0,0,5.106-.719,7.245,7.245,0,0,0,2.876-2.157,5.4,5.4,0,0,0,1.151-3.452A5.793,5.793,0,0,0,19.56,14.512Zm-5.178,8.629a3.614,3.614,0,0,1-3.092,1.366,1.8,1.8,0,0,1-1.726-.719,4.462,4.462,0,0,1-.5-2.373V14.3a12.778,12.778,0,0,1,3.308.36,3.871,3.871,0,0,1,2.085,1.726,5.447,5.447,0,0,1,.935,3.308A5.933,5.933,0,0,1,14.382,23.142ZM75.721,2.072v.575a3.785,3.785,0,0,1,1.726.216c.431.216.36.935.216,1.294a3.724,3.724,0,0,1-.863,1.51L71.479,12.5a10.619,10.619,0,0,1-2.3.288V5.6a3.419,3.419,0,0,1,.575-2.3,4.374,4.374,0,0,1,2.661-.575V2.072H60.476v.575a4.692,4.692,0,0,1,2.661.575A3.117,3.117,0,0,1,63.784,5.6v7.047a9.775,9.775,0,0,1-2.229-.288L56.234,5.6a3.327,3.327,0,0,1-.863-1.51c-.144-.36-.216-1.007.216-1.294a4.942,4.942,0,0,1,1.726-.216v-.5H49.258v.575h.36c1.366,0,2.733,1.582,4.027,2.948l5.825,6.616.575.863h-.072a5.531,5.531,0,0,0-2.517,1.438,21.406,21.406,0,0,0-2.517,4.1,39.71,39.71,0,0,1-3.02,5.321,2.772,2.772,0,0,1-2.229.719v.575h7.263l4.6-9.348a3.964,3.964,0,0,1,.935-1.438,2.431,2.431,0,0,1,1.294-.288v7.622a4.192,4.192,0,0,1-.288,1.942,1.588,1.588,0,0,1-.935.719,7.1,7.1,0,0,1-2.013.216v.575H72.485v-.575a5.069,5.069,0,0,1-2.229-.288,2.4,2.4,0,0,1-.791-.647c-.216-.216-.288-.935-.288-2.085V14.225c.719.072,1.151.144,1.366.36a6.623,6.623,0,0,1,1.007,1.582l4.53,9.133h7.191v-.575a3.327,3.327,0,0,1-1.8-.431,5.677,5.677,0,0,1-1.51-2.013l-2.013-3.667q-1.51-2.8-1.942-3.452a4.377,4.377,0,0,0-1.151-1.151,6.6,6.6,0,0,0-2.013-.935l.647-.863L79.317,5.6c1.294-1.366,2.589-2.948,4.027-2.948h.288V2.072Z" transform="translate(0 -0.562)" fill="#00529b"/></svg>